<mxfile host="app.diagrams.net" modified="2021-07-14T19:57:01.894Z" agent="5.0 (X11; Linux x86_64) AppleWebKit/537.36 (KHTML, like Gecko) Chrome/91.0.4472.114 Safari/537.36" etag="-8UvrACxBCywckFTHQlV" version="14.8.6" type="github">
  <diagram id="zR6TFl7gq01uzuETBAgL" name="Page-1">
    <mxGraphModel dx="970" dy="718" grid="1" gridSize="10" guides="1" tooltips="1" connect="1" arrows="1" fold="1" page="1" pageScale="1" pageWidth="827" pageHeight="1169" math="0" shadow="0">
      <root>
        <mxCell id="0" />
        <mxCell id="1" parent="0" />
        <mxCell id="lo9jlHmk3sX8GChTCFwy-1" value="1" style="ellipse;whiteSpace=wrap;html=1;aspect=fixed;" vertex="1" parent="1">
          <mxGeometry x="360" y="40" width="40" height="40" as="geometry" />
        </mxCell>
        <mxCell id="lo9jlHmk3sX8GChTCFwy-7" style="edgeStyle=orthogonalEdgeStyle;rounded=0;orthogonalLoop=1;jettySize=auto;html=1;exitX=0.5;exitY=0;exitDx=0;exitDy=0;entryX=0.5;entryY=1;entryDx=0;entryDy=0;" edge="1" parent="1" source="lo9jlHmk3sX8GChTCFwy-2" target="lo9jlHmk3sX8GChTCFwy-1">
          <mxGeometry relative="1" as="geometry" />
        </mxCell>
        <mxCell id="lo9jlHmk3sX8GChTCFwy-2" value="3" style="ellipse;whiteSpace=wrap;html=1;aspect=fixed;" vertex="1" parent="1">
          <mxGeometry x="400" y="120" width="40" height="40" as="geometry" />
        </mxCell>
        <mxCell id="lo9jlHmk3sX8GChTCFwy-6" style="edgeStyle=orthogonalEdgeStyle;rounded=0;orthogonalLoop=1;jettySize=auto;html=1;exitX=0.5;exitY=0;exitDx=0;exitDy=0;entryX=0.5;entryY=1;entryDx=0;entryDy=0;" edge="1" parent="1" source="lo9jlHmk3sX8GChTCFwy-3" target="lo9jlHmk3sX8GChTCFwy-1">
          <mxGeometry relative="1" as="geometry" />
        </mxCell>
        <mxCell id="lo9jlHmk3sX8GChTCFwy-3" value="2" style="ellipse;whiteSpace=wrap;html=1;aspect=fixed;" vertex="1" parent="1">
          <mxGeometry x="320" y="120" width="40" height="40" as="geometry" />
        </mxCell>
        <mxCell id="lo9jlHmk3sX8GChTCFwy-8" style="edgeStyle=orthogonalEdgeStyle;rounded=0;orthogonalLoop=1;jettySize=auto;html=1;exitX=0.5;exitY=0;exitDx=0;exitDy=0;entryX=0.5;entryY=1;entryDx=0;entryDy=0;" edge="1" parent="1" source="lo9jlHmk3sX8GChTCFwy-4" target="lo9jlHmk3sX8GChTCFwy-3">
          <mxGeometry relative="1" as="geometry" />
        </mxCell>
        <mxCell id="lo9jlHmk3sX8GChTCFwy-4" value="5" style="ellipse;whiteSpace=wrap;html=1;aspect=fixed;" vertex="1" parent="1">
          <mxGeometry x="280" y="200" width="40" height="40" as="geometry" />
        </mxCell>
        <mxCell id="lo9jlHmk3sX8GChTCFwy-9" style="edgeStyle=orthogonalEdgeStyle;rounded=0;orthogonalLoop=1;jettySize=auto;html=1;exitX=0.5;exitY=0;exitDx=0;exitDy=0;" edge="1" parent="1" source="lo9jlHmk3sX8GChTCFwy-5">
          <mxGeometry relative="1" as="geometry">
            <mxPoint x="340" y="160" as="targetPoint" />
          </mxGeometry>
        </mxCell>
        <mxCell id="lo9jlHmk3sX8GChTCFwy-5" value="4" style="ellipse;whiteSpace=wrap;html=1;aspect=fixed;" vertex="1" parent="1">
          <mxGeometry x="360" y="200" width="40" height="40" as="geometry" />
        </mxCell>
      </root>
    </mxGraphModel>
  </diagram>
</mxfile>
